<mxfile host="app.diagrams.net" modified="2024-07-07T07:41:05.281Z" agent="Mozilla/5.0 (Windows NT 10.0; Win64; x64) AppleWebKit/537.36 (KHTML, like Gecko) Chrome/126.0.0.0 Safari/537.36" etag="gtMH4FzuFA8PH0Rf_-D6" version="24.6.4" type="device">
  <diagram name="Page-1" id="b5b7bab2-c9e2-2cf4-8b2a-24fd1a2a6d21">
    <mxGraphModel dx="1434" dy="738" grid="1" gridSize="10" guides="1" tooltips="1" connect="1" arrows="1" fold="1" page="1" pageScale="1" pageWidth="827" pageHeight="1169" background="none" math="0" shadow="0">
      <root>
        <mxCell id="0" />
        <mxCell id="1" parent="0" />
        <mxCell id="870YrRvBdsA42mvLJBLW-9" style="edgeStyle=orthogonalEdgeStyle;rounded=0;orthogonalLoop=1;jettySize=auto;html=1;entryX=0;entryY=0.5;entryDx=0;entryDy=0;" parent="1" source="870YrRvBdsA42mvLJBLW-7" target="870YrRvBdsA42mvLJBLW-8" edge="1">
          <mxGeometry relative="1" as="geometry" />
        </mxCell>
        <mxCell id="870YrRvBdsA42mvLJBLW-7" value="Mysql" style="shape=datastore;whiteSpace=wrap;html=1;" parent="1" vertex="1">
          <mxGeometry x="70" y="490" width="90" height="110" as="geometry" />
        </mxCell>
        <mxCell id="870YrRvBdsA42mvLJBLW-11" style="edgeStyle=orthogonalEdgeStyle;rounded=0;orthogonalLoop=1;jettySize=auto;html=1;exitX=1;exitY=0.5;exitDx=0;exitDy=0;" parent="1" source="870YrRvBdsA42mvLJBLW-8" target="870YrRvBdsA42mvLJBLW-10" edge="1">
          <mxGeometry relative="1" as="geometry" />
        </mxCell>
        <mxCell id="870YrRvBdsA42mvLJBLW-8" value="Producer" style="rounded=1;whiteSpace=wrap;html=1;" parent="1" vertex="1">
          <mxGeometry x="400" y="515" width="120" height="60" as="geometry" />
        </mxCell>
        <mxCell id="0eO1_wQzQT21tMJ216nw-10" style="edgeStyle=orthogonalEdgeStyle;rounded=0;orthogonalLoop=1;jettySize=auto;html=1;exitX=0.5;exitY=0;exitDx=0;exitDy=0;exitPerimeter=0;entryX=1;entryY=0.5;entryDx=0;entryDy=0;" edge="1" parent="1" source="870YrRvBdsA42mvLJBLW-10" target="0eO1_wQzQT21tMJ216nw-7">
          <mxGeometry relative="1" as="geometry" />
        </mxCell>
        <mxCell id="870YrRvBdsA42mvLJBLW-10" value="Kafka" style="shape=cylinder3;whiteSpace=wrap;html=1;boundedLbl=1;backgroundOutline=1;size=15;direction=south;" parent="1" vertex="1">
          <mxGeometry x="720" y="515" width="140" height="60" as="geometry" />
        </mxCell>
        <mxCell id="870YrRvBdsA42mvLJBLW-16" value="" style="rounded=1;whiteSpace=wrap;html=1;" parent="1" vertex="1">
          <mxGeometry x="495" y="690" width="120" height="60" as="geometry" />
        </mxCell>
        <mxCell id="0eO1_wQzQT21tMJ216nw-1" value="" style="shape=document;whiteSpace=wrap;html=1;boundedLbl=1;" vertex="1" parent="1">
          <mxGeometry x="90" y="690" width="120" height="80" as="geometry" />
        </mxCell>
        <mxCell id="0eO1_wQzQT21tMJ216nw-2" value="" style="shape=document;whiteSpace=wrap;html=1;boundedLbl=1;" vertex="1" parent="1">
          <mxGeometry x="80" y="700" width="120" height="80" as="geometry" />
        </mxCell>
        <mxCell id="0eO1_wQzQT21tMJ216nw-3" value="JSON file" style="shape=document;whiteSpace=wrap;html=1;boundedLbl=1;" vertex="1" parent="1">
          <mxGeometry x="70" y="720" width="120" height="80" as="geometry" />
        </mxCell>
        <mxCell id="0eO1_wQzQT21tMJ216nw-4" value="" style="rounded=1;whiteSpace=wrap;html=1;" vertex="1" parent="1">
          <mxGeometry x="505" y="700" width="120" height="60" as="geometry" />
        </mxCell>
        <mxCell id="0eO1_wQzQT21tMJ216nw-5" value="&lt;span style=&quot;color: rgba(0, 0, 0, 0); font-family: monospace; font-size: 0px; text-align: start; text-wrap: nowrap;&quot;&gt;%3CmxGraphModel%3E%3Croot%3E%3CmxCell%20id%3D%220%22%2F%3E%3CmxCell%20id%3D%221%22%20parent%3D%220%22%2F%3E%3CmxCell%20id%3D%222%22%20value%3D%22%22%20style%3D%22rounded%3D1%3BwhiteSpace%3Dwrap%3Bhtml%3D1%3B%22%20vertex%3D%221%22%20parent%3D%221%22%3E%3CmxGeometry%20x%3D%22495%22%20y%3D%22690%22%20width%3D%22120%22%20height%3D%2260%22%20as%3D%22geometry%22%2F%3E%3C%2FmxCell%3E%3C%2Froot%3E%3C%2FmxGraphModel%3E&lt;/span&gt;" style="rounded=1;whiteSpace=wrap;html=1;" vertex="1" parent="1">
          <mxGeometry x="515" y="710" width="120" height="60" as="geometry" />
        </mxCell>
        <mxCell id="0eO1_wQzQT21tMJ216nw-6" value="" style="rounded=1;whiteSpace=wrap;html=1;" vertex="1" parent="1">
          <mxGeometry x="525" y="720" width="120" height="60" as="geometry" />
        </mxCell>
        <mxCell id="0eO1_wQzQT21tMJ216nw-8" style="edgeStyle=orthogonalEdgeStyle;rounded=0;orthogonalLoop=1;jettySize=auto;html=1;exitX=0;exitY=0.5;exitDx=0;exitDy=0;entryX=1;entryY=0.5;entryDx=0;entryDy=0;" edge="1" parent="1" source="0eO1_wQzQT21tMJ216nw-7" target="0eO1_wQzQT21tMJ216nw-3">
          <mxGeometry relative="1" as="geometry" />
        </mxCell>
        <mxCell id="0eO1_wQzQT21tMJ216nw-7" value="Consumer" style="rounded=1;whiteSpace=wrap;html=1;" vertex="1" parent="1">
          <mxGeometry x="535" y="730" width="120" height="60" as="geometry" />
        </mxCell>
        <mxCell id="0eO1_wQzQT21tMJ216nw-9" value="Read products data incrementally" style="text;html=1;align=center;verticalAlign=middle;resizable=0;points=[];autosize=1;strokeColor=none;fillColor=none;" vertex="1" parent="1">
          <mxGeometry x="170" y="515" width="200" height="30" as="geometry" />
        </mxCell>
        <mxCell id="0eO1_wQzQT21tMJ216nw-11" value="Put data into kafka topic" style="text;html=1;align=center;verticalAlign=middle;resizable=0;points=[];autosize=1;strokeColor=none;fillColor=none;" vertex="1" parent="1">
          <mxGeometry x="550" y="515" width="150" height="30" as="geometry" />
        </mxCell>
        <mxCell id="0eO1_wQzQT21tMJ216nw-13" value="&lt;span style=&quot;color: rgb(0, 0, 0); font-family: Helvetica; font-size: 12px; font-style: normal; font-variant-ligatures: normal; font-variant-caps: normal; font-weight: 400; letter-spacing: normal; orphans: 2; text-align: center; text-indent: 0px; text-transform: none; widows: 2; word-spacing: 0px; -webkit-text-stroke-width: 0px; white-space: nowrap; background-color: rgb(251, 251, 251); text-decoration-thickness: initial; text-decoration-style: initial; text-decoration-color: initial; display: inline !important; float: none;&quot;&gt;Perform transformation&lt;/span&gt;" style="text;whiteSpace=wrap;html=1;" vertex="1" parent="1">
          <mxGeometry x="333.5" y="730" width="160" height="30" as="geometry" />
        </mxCell>
        <mxCell id="0eO1_wQzQT21tMJ216nw-14" value="&lt;span style=&quot;color: rgb(0, 0, 0); font-family: Helvetica; font-size: 12px; font-style: normal; font-variant-ligatures: normal; font-variant-caps: normal; font-weight: 400; letter-spacing: normal; orphans: 2; text-align: center; text-indent: 0px; text-transform: none; widows: 2; word-spacing: 0px; -webkit-text-stroke-width: 0px; white-space: nowrap; background-color: rgb(251, 251, 251); text-decoration-thickness: initial; text-decoration-style: initial; text-decoration-color: initial; display: inline !important; float: none;&quot;&gt;Consume from Kafka topic&lt;/span&gt;" style="text;whiteSpace=wrap;html=1;" vertex="1" parent="1">
          <mxGeometry x="700" y="725" width="160" height="40" as="geometry" />
        </mxCell>
      </root>
    </mxGraphModel>
  </diagram>
</mxfile>
